Coordinates
version=1
nRows=4
nColumns=114
inDegrees=yes

Units are S.I. units (second, meters, Newtons, ...)
If the header above contains a line with 'inDegrees', this indicates whether rotational values are in degrees (yes) or radians (no).

endheader 
time	pelvis_tilt	pelvis_list	pelvis_rotation	pelvis_tx	pelvis_ty	pelvis_tz	hip_flexion_l	hip_adduction_l	hip_rotation_l	hip_flexion_r	hip_adduction_r	hip_rotation_r	knee_angle_l	knee_angle_r	ankle_angle_l	ankle_angle_r	subtalar_angle_l	subtalar_angle_r	mtp_angle_l	mtp_angle_r	lumbar_extension	lumbar_bending	lumbar_rotation	arm_flex_l	arm_add_l	arm_rot_l	arm_flex_r	arm_add_r	arm_rot_r	elbow_flex_l	elbow_flex_r	pro_sup_l	pro_sup_r	addbrev_l/activation	addlong_l/activation	addmagDist_l/activation	addmagIsch_l/activation	addmagMid_l/activation	addmagProx_l/activation	bflh_l/activation	bfsh_l/activation	edl_l/activation	ehl_l/activation	fdl_l/activation	fhl_l/activation	gaslat_l/activation	gasmed_l/activation	glmax1_l/activation	glmax2_l/activation	glmax3_l/activation	glmed1_l/activation	glmed2_l/activation	glmed3_l/activation	glmin1_l/activation	glmin2_l/activation	glmin3_l/activation	grac_l/activation	iliacus_l/activation	perbrev_l/activation	perlong_l/activation	piri_l/activation	psoas_l/activation	recfem_l/activation	sart_l/activation	semimem_l/activation	semiten_l/activation	soleus_l/activation	tfl_l/activation	tibant_l/activation	tibpost_l/activation	vasint_l/activation	vaslat_l/activation	vasmed_l/activation	addbrev_r/activation	addlong_r/activation	addmagDist_r/activation	addmagIsch_r/activation	addmagMid_r/activation	addmagProx_r/activation	bflh_r/activation	bfsh_r/activation	edl_r/activation	ehl_r/activation	fdl_r/activation	fhl_r/activation	gaslat_r/activation	gasmed_r/activation	glmax1_r/activation	glmax2_r/activation	glmax3_r/activation	glmed1_r/activation	glmed2_r/activation	glmed3_r/activation	glmin1_r/activation	glmin2_r/activation	glmin3_r/activation	grac_r/activation	iliacus_r/activation	perbrev_r/activation	perlong_r/activation	piri_r/activation	psoas_r/activation	recfem_r/activation	sart_r/activation	semimem_r/activation	semiten_r/activation	soleus_r/activation	tfl_r/activation	tibant_r/activation	tibpost_r/activation	vasint_r/activation	vaslat_r/activation	vasmed_r/activation	
          0.50000000	         -8.67727616	         -3.02841384	          4.30851749	          1.05212824	          0.81912018	         -0.24086915	         40.34371683	        -17.99533286	         -7.57150188	         35.41219421	        -10.95449183	        -14.44223411	         53.63753388	         51.65183498	         17.14649188	         20.75336151	         -2.88176814	        -16.69092663	         -7.69843689	         -5.37668764	        -22.40789256	          1.64549843	          0.72134201	         35.79418614	        -30.24563560	         37.23833140	         31.26391275	        -19.07507118	         19.52103713	         78.76580997	         76.56959274	         77.23196017	         84.31922686	          0.08528298	          0.13949614	          0.07309502	          0.05265833	          0.09049370	          0.05706084	          0.02821963	          0.01034572	          0.01014358	          0.01033654	          0.01689798	          0.03176993	          0.02260099	          0.02444062	          0.01005842	          0.01003838	          0.04064494	          0.01005253	          0.01005389	          0.01004679	          0.01016503	          0.01011800	          0.01009846	          0.03542996	          0.02193102	          0.01009278	          0.01005350	          0.01004997	          0.03807935	          0.01009181	          0.01018279	          0.03781969	          0.02009478	          0.15785761	          0.01020478	          0.01352058	          0.06527834	          0.02177872	          0.06005231	          0.02806256	          0.03796012	          0.05169947	          0.05639631	          0.05491587	          0.05056480	          0.02580744	          0.06226985	          0.01029068	          0.01018467	          0.01049051	          0.02210778	          0.04256207	          0.02438913	          0.01940179	          0.01029795	          0.01036694	          0.06903270	          0.01010672	          0.01013929	          0.01015069	          0.01022628	          0.01019018	          0.01017779	          0.01855127	          0.01022251	          0.01006199	          0.01003153	          0.01012445	          0.01030267	          0.01007929	          0.01016771	          0.07145598	          0.02221490	          0.20149862	          0.01016750	          0.04024858	          0.10676846	          0.04474462	          0.12589201	          0.05845612	
          0.52000000	         -9.16070588	         -3.02592233	          4.64873860	          1.04680946	          0.80534803	         -0.23980081	         43.55811652	        -18.15676865	         -6.59348473	         38.44865343	        -11.57620126	        -13.74112984	         57.39923979	         55.89479776	         18.14180670	         22.14095379	         -3.14771385	        -17.13812913	         -8.14765013	         -5.97084308	        -23.90559688	          1.56116290	          0.82857645	         38.69558227	        -30.77194002	         37.70941788	         33.39263479	        -19.73465001	         19.30560001	         82.85204636	         81.08177420	         78.55897344	         85.58445080	          0.07452938	          0.11807562	          0.07274096	          0.05416670	          0.08479120	          0.05044346	          0.04067559	          0.01031414	          0.01014953	          0.01030122	          0.01404722	          0.02557984	          0.02243678	          0.03203453	          0.01007620	          0.01005426	          0.05345578	          0.01006446	          0.01006665	          0.01005942	          0.01019122	          0.01013504	          0.01011342	          0.03237410	          0.01488560	          0.01012026	          0.01007357	          0.01005754	          0.02548514	          0.01007244	          0.01015509	          0.06870961	          0.02393615	          0.18249985	          0.01019737	          0.01030330	          0.04989702	          0.03036868	          0.08442971	          0.03966765	          0.02748454	          0.03535956	          0.05801747	          0.05850542	          0.04617911	          0.02028028	          0.07384208	          0.01025425	          0.01018054	          0.01044044	          0.02142880	          0.04264635	          0.02557683	          0.02312816	          0.01573261	          0.03481833	          0.08195182	          0.01015040	          0.01023373	          0.01030407	          0.01026126	          0.01023036	          0.01023434	          0.01554345	          0.01013807	          0.01006089	          0.01003134	          0.01019259	          0.01015523	          0.01006939	          0.01014298	          0.08583089	          0.02468805	          0.23602483	          0.01016962	          0.03519731	          0.10674740	          0.05854917	          0.16209953	          0.07644739	
          0.54000000	         -9.57595994	         -3.03004904	          4.98861900	          1.04140582	          0.79142072	         -0.23866785	         46.64432340	        -18.24357103	         -5.60417497	         41.34015850	        -12.12888983	        -13.01495258	         60.98059285	         59.91603570	         19.01355052	         23.42753367	         -3.50885003	        -17.50134488	         -8.69420986	         -6.62629500	        -25.52951938	          1.45495990	          0.99202507	         41.83648588	        -31.13163326	         38.17473716	         35.59246467	        -20.39261001	         19.01463339	         86.55219750	         85.57050694	         79.96478278	         87.03152114	          0.06063399	          0.09171341	          0.07187552	          0.05478842	          0.07746860	          0.04226172	          0.05292022	          0.01028095	          0.01015114	          0.01027133	          0.01224273	          0.02095569	          0.02277925	          0.03760534	          0.01012603	          0.01008905	          0.06721563	          0.01008526	          0.01009198	          0.01008671	          0.01022790	          0.01016202	          0.01014053	          0.02857722	          0.01032806	          0.01015773	          0.01010473	          0.01007364	          0.01703625	          0.01005747	          0.01013162	          0.11637271	          0.02793388	          0.20370274	          0.01539754	          0.01017828	          0.03655123	          0.04008827	          0.11071737	          0.05286319	          0.02211132	          0.02532527	          0.06243150	          0.06246042	          0.04672617	          0.01797022	          0.07982748	          0.01022004	          0.01017554	          0.01041478	          0.02192698	          0.04481814	          0.02637423	          0.02460994	          0.02708258	          0.05654733	          0.09267226	          0.01018576	          0.01036123	          0.01102382	          0.01027876	          0.01025527	          0.01028139	          0.01419643	          0.01010694	          0.01005764	          0.01002982	          0.01028565	          0.01010882	          0.01006524	          0.01012380	          0.09363192	          0.02609834	          0.26627259	          0.01016564	          0.03301001	          0.10793082	          0.07310888	          0.19938231	          0.09588846	
          0.56000000	         -9.92016512	         -3.04330022	          5.32063026	          1.03602856	          0.77769648	         -0.23747957	         49.58317509	        -18.27483188	         -4.63863650	         44.07214147	        -12.59461345	        -12.25867795	         64.38103178	         63.70048161	         19.76004366	         24.60325866	         -3.96807620	        -17.81756314	         -9.26467405	         -7.27074673	        -27.25774327	          1.33447611	          1.20715371	         45.20007807	        -31.34760766	         38.65574335	         37.84504032	        -21.03447079	         18.66488391	         89.86053619	         90.01068002	         81.43309980	         88.66790910	          0.04546307	          0.06334764	          0.07452086	          0.05870378	          0.07178373	          0.03348313	          0.07366231	          0.01025378	          0.01015011	          0.01024832	          0.01133632	          0.01796208	          0.02213054	          0.03847731	          0.01036593	          0.01309294	          0.08601986	          0.01012150	          0.01014854	          0.01017337	          0.01027228	          0.01020028	          0.01018694	          0.02551596	          0.01013011	          0.01020713	          0.01015400	          0.01010753	          0.01140122	          0.01004367	          0.01011068	          0.16093199	          0.03594810	          0.21996548	          0.02830202	          0.01012607	          0.02671832	          0.04781746	          0.13016975	          0.06364832	          0.02137719	          0.02209779	          0.06758361	          0.06508832	          0.05035167	          0.01782207	          0.07980352	          0.01019197	          0.01017471	          0.01039372	          0.02305894	          0.04724995	          0.02645873	          0.02131200	          0.03317108	          0.06752290	          0.09983936	          0.01019420	          0.01040996	          0.01341655	          0.01027954	          0.01026065	          0.01030093	          0.01373483	          0.01009109	          0.01005443	          0.01002831	          0.01034537	          0.01008947	          0.01006333	          0.01010940	          0.09440650	          0.02620994	          0.29129591	          0.01016189	          0.03410147	          0.10893016	          0.08608398	          0.23258894	          0.11380380	
